<svg width="38" height="38" viewBox="0 0 38 38" fill="none" xmlns="http://www.w3.org/2000/svg">
<rect x="1" y="1" width="36" height="36" rx="8" fill="#292929" style="fill:#292929;fill:color(display-p3 0.1600 0.1600 0.1600);fill-opacity:1;"/>
<rect x="1" y="1" width="36" height="36" rx="8" stroke="#A4A4A4" style="stroke:#A4A4A4;stroke:color(display-p3 0.6431 0.6431 0.6431);stroke-opacity:1;"/>
<path fill-rule="evenodd" clip-rule="evenodd" d="M23.7324 11.2324C23.42 10.92 22.9135 10.92 22.6011 11.2324L19.0001 14.8334V11.4667C19.0001 11.0249 18.6419 10.6667 18.2001 10.6667H15.1648C14.9526 10.6667 14.7491 10.751 14.5991 10.9011L11.2324 14.2677C10.92 14.5801 10.92 15.0867 11.2324 15.3991L14.8334 19.0001H11.4667C11.0249 19.0001 10.6667 19.3583 10.6667 19.8001V22.8354C10.6667 23.0475 10.751 23.251 10.9011 23.4011L14.2677 26.7677C14.5801 27.0801 15.0867 27.0801 15.3991 26.7677L19.0001 23.1667V26.5334C19.0001 26.9752 19.3583 27.3334 19.8001 27.3334H22.8354C23.0475 27.3334 23.251 27.2491 23.4011 27.0991L26.7677 23.7324C27.0801 23.42 27.0801 22.9135 26.7677 22.6011L23.1667 19.0001H26.5334C26.9752 19.0001 27.3334 18.6419 27.3334 18.2001V15.1648C27.3334 14.9526 27.2491 14.7491 27.0991 14.5991L23.7324 11.2324ZM23.1667 19.0001L19.0001 23.1667L14.8334 19.0001L19.0001 14.8334L23.1667 19.0001Z" fill="white" style="fill:white;fill-opacity:1;"/>
</svg>
